<svg width="512" height="512" viewBox="0 0 512 512" fill="none" xmlns="http://www.w3.org/2000/svg">
  <rect width="512" height="512" fill="#3b82f6"/>
  <path d="M256 120C178.8 120 116 182.8 116 260C116 337.2 178.8 400 256 400C333.2 400 396 337.2 396 260C396 182.8 333.2 120 256 120ZM256 360C200.8 360 156 315.2 156 260C156 204.8 200.8 160 256 160C311.2 160 356 204.8 356 260C356 315.2 311.2 360 256 360Z" fill="white"/>
  <path d="M256 200C228.4 200 206 222.4 206 250C206 277.6 228.4 300 256 300C283.6 300 306 277.6 306 250C306 222.4 283.6 200 256 200Z" fill="white"/>
  <rect x="236" y="300" width="40" height="80" fill="white"/>
</svg>
